<?xml version="1.0" encoding="utf-8"?>
<!-- Generator: Adobe Illustrator 27.5.0, SVG Export Plug-In . SVG Version: 6.00 Build 0)  -->
<svg version="1.1" xmlns="http://www.w3.org/2000/svg" xmlns:xlink="http://www.w3.org/1999/xlink" x="0px" y="0px"
	 viewBox="0 0 500 500" style="enable-background:new 0 0 500 500;" xml:space="preserve">
<g id="BACKGROUND">
	<rect x="0" style="fill:#DBE6FC;" width="500" height="500"/>
	<path style="fill:#E5EDFC;" d="M500,205.77c-6.969-4.687-14.578-8.614-22.175-11.983c-19.718-8.746-40.888-15.291-57.671-28.842
		c-34.258-27.662-41.897-76.962-69.586-111.198C325.83,23.158,284.622,6.771,245.632,12.018
		c-24.717,3.326-47.819,14.582-72.508,18.112C138.701,35.053,102.729,23.053,76.857,0H500V205.77z M119.276,488.476
		c-22.417-10.224-48.295-16.043-64.518-34.588c-15.279-17.467-18.363-42.475-17.281-65.657c1.081-23.182,5.61-46.408,2.767-69.44
		C36.814,291.015,21.575,265.395,0,247.657V500h135.33C131.296,495.081,125.137,491.15,119.276,488.476z"/>
</g>
<g id="OBJECTS">
	<g>
		<g>
			<g>
				<g>
					<rect x="106.614" y="423.988" style="fill:none;" width="286.772" height="32.716"/>
					<text transform="matrix(1 0 0 1 114.5273 429.9854)"><tspan x="0" y="0" style="fill:#1D262C; font-family:'AntipastoPro-DemiBold'; font-size:8.4473px;">Lorem ipsum dolor sit amet, consectetuer adipiscing elit, sed diam nonummy </tspan><tspan x="-0.354" y="10.138" style="fill:#1D262C; font-family:'AntipastoPro-DemiBold'; font-size:8.4473px;">nibh euismod tincidunt ut laoreet dolore magna aliquam erat volutpat ut wisi </tspan><tspan x="125.627" y="20.274" style="fill:#1D262C; font-family:'AntipastoPro-DemiBold'; font-size:8.4473px;">enim.</tspan></text>
					<g>
						
							<text transform="matrix(1 0 0 1 184.7168 409.6514)" style="fill:#1D262C; font-family:'AntipastoPro-DemiBold'; font-size:12.2606px; letter-spacing:1;">SCHEDULE PLANNING</text>
					</g>
				</g>
			</g>
			<g>
				<g>
					<path style="fill:#1D262C;" d="M318.692,415.567H180.961c-5.401,0-9.795-4.394-9.795-9.795c0-5.402,4.394-9.796,9.795-9.796
						h137.731c5.402,0,9.796,4.394,9.796,9.796C328.488,411.172,324.094,415.567,318.692,415.567z M180.961,396.915
						c-4.884,0-8.857,3.973-8.857,8.857c0,4.884,3.973,8.856,8.857,8.856h137.731c4.884,0,8.857-3.973,8.857-8.856
						c0-4.884-3.974-8.857-8.857-8.857H180.961z"/>
				</g>
			</g>
		</g>
	</g>
	<g>
		<g>
			<g>
				<path style="fill:#316EDC;" d="M286.239,191.683L75.307,217.821c-1.808,0.224-3.274-1.06-3.274-2.869v-110.85
					c0-1.808,1.466-3.456,3.274-3.68l210.932-26.138c1.809-0.224,3.275,1.06,3.275,2.869v110.85
					C289.514,189.811,288.048,191.459,286.239,191.683z"/>
				<path style="fill:#1A4687;" d="M289.514,86.129l-217.481,26.95v-8.977c0-1.808,1.466-3.456,3.274-3.68l210.932-26.138
					c1.809-0.224,3.275,1.06,3.275,2.869V86.129z"/>
				<polygon style="fill:#53D4F0;" points="167.903,197.069 81.311,207.8 81.311,121.207 167.903,110.477 				"/>
				<polygon style="fill:#5093FC;" points="237.395,111.128 176.271,118.702 176.271,109.44 237.395,101.866 				"/>
				<polygon style="fill:#5093FC;" points="213.746,126.065 176.271,130.709 176.271,124.523 213.746,119.88 				"/>
				<polygon style="fill:#53D4F0;" points="280.236,168.661 241.397,173.474 241.397,170.382 280.236,165.569 				"/>
				<polygon style="fill:#5093FC;" points="280.236,129.286 176.271,142.169 176.271,135.984 280.236,123.101 				"/>
				<polygon style="fill:#5093FC;" points="280.236,140.747 176.271,153.63 176.271,147.445 280.236,134.562 				"/>
				<polygon style="fill:#5093FC;" points="261.772,154.496 176.271,165.091 176.271,158.906 261.772,148.311 				"/>
				<polygon style="fill:#5093FC;" points="81.311,186.136 119.195,143.557 136.056,158.329 146.198,146.931 167.903,166.128 
					167.903,197.069 81.311,207.8 				"/>
				<path style="fill:#FFFFFF;" d="M108.044,135.032c0,5.3-4.296,10.129-9.596,10.785c-5.3,0.657-9.596-3.107-9.596-8.407
					c0-5.3,4.296-10.129,9.596-10.785C103.748,125.969,108.044,129.733,108.044,135.032z"/>
				<path style="fill:#FFFFFF;" d="M149.726,118.255c-2.149,0.266-3.891,2.224-3.891,4.373l-7.84,0.971
					c-2.598,0.322-4.704,2.689-4.704,5.287c0,2.598,2.106,4.443,4.704,4.121l29.908-3.706v-13.299L149.726,118.255z"/>
				<path style="fill:#FFFFFF;" d="M167.903,138.211l-14.344,1.777c-1.636,0.203-2.962-0.959-2.962-2.595l0,0
					c0-1.636,1.326-3.126,2.962-3.329l14.344-1.778V138.211z"/>
			</g>
			<g>
				<path style="fill:#1A4687;" d="M93.769,374.189V269.664c0-0.53,0.38-0.963,0.902-1.028l56.613-7.015
					c0.668-0.083,1.281,0.463,1.281,1.142v104.525c0,0.53-0.38,0.963-0.902,1.028l-56.612,7.015
					C94.382,375.414,93.769,374.868,93.769,374.189z"/>
				<polygon style="fill:#30589F;" points="146.999,316.795 99.335,322.702 99.335,316.752 146.999,310.846 				"/>
				<polygon style="fill:#30589F;" points="146.999,330.187 99.335,336.093 99.335,330.144 146.999,324.237 				"/>
				<polygon style="fill:#30589F;" points="146.999,343.578 99.335,349.485 99.335,343.536 146.999,337.629 				"/>
				<path style="fill:#316EDC;" d="M152.565,268.316l-58.796,7.286v-5.939c0-0.53,0.38-0.963,0.902-1.028l56.613-7.015
					c0.668-0.083,1.281,0.463,1.281,1.142V268.316z"/>
				<polygon style="fill:#FFFFFF;" points="134.444,359.98 111.89,362.775 111.89,356.181 134.444,353.386 				"/>
			</g>
			<g>
				<path style="fill:#316EDC;" d="M125.328,287.659l-42.866,5.312c-4.439,0.55-8.037-2.603-8.037-7.041v-42.866
					c0-4.439,3.598-8.483,8.037-9.033l42.866-5.312c4.439-0.55,8.037,2.603,8.037,7.041v42.866
					C133.366,283.065,129.767,287.109,125.328,287.659z"/>
				<path style="fill:#1A4687;" d="M123.167,273.57l-7.981-6.993c1.908-2.961,3.036-6.409,3.036-9.981
					c0-9.264-7.535-15.866-16.799-14.718c-9.264,1.148-16.799,9.617-16.799,18.881c0,9.264,7.535,15.865,16.799,14.717
					c3.572-0.443,6.88-1.981,9.605-4.227l7.981,6.992L123.167,273.57z M101.423,269.597c-6.019,0.746-10.918-3.546-10.918-9.565
					c0-6.019,4.899-11.525,10.918-12.271c6.019-0.746,10.918,3.546,10.918,9.565C112.341,263.345,107.442,268.851,101.423,269.597z"
					/>
			</g>
			<g>
				<path style="fill:#316EDC;" d="M320.333,313.723l-132.983,16.479c-2.096,0.26-3.795-1.229-3.795-3.325V197.689
					c0-2.096,1.699-4.006,3.795-4.265l132.983-16.479c2.096-0.26,3.795,1.229,3.795,3.325v129.188
					C324.128,311.553,322.429,313.463,320.333,313.723z"/>
				<path style="fill:#1A4687;" d="M324.128,200.088l-140.573,17.42v-19.818c0-2.096,1.699-4.006,3.795-4.265l132.983-16.479
					c2.096-0.26,3.795,1.229,3.795,3.325V200.088z"/>
				<polygon style="fill:#5093FC;" points="216.534,246.4 192.831,249.337 192.831,225.634 216.534,222.697 				"/>
				<polygon style="fill:#1A4687;" points="249.253,242.345 225.551,245.282 225.551,221.58 249.253,218.643 				"/>
				<polygon style="fill:#1A4687;" points="281.973,238.29 258.271,241.228 258.271,217.525 281.973,214.588 				"/>
				<polygon style="fill:#1A4687;" points="314.693,234.236 290.99,237.173 290.99,213.471 314.693,210.533 				"/>
				<polygon style="fill:#1A4687;" points="216.534,279.12 192.831,282.057 192.831,258.354 216.534,255.417 				"/>
				<polygon style="fill:#1A4687;" points="249.253,275.065 225.551,278.002 225.551,254.3 249.253,251.362 				"/>
				<polygon style="fill:#1A4687;" points="281.973,271.01 258.271,273.947 258.271,250.245 281.973,247.308 				"/>
				<polygon style="fill:#1A4687;" points="314.693,266.956 290.99,269.893 290.99,246.19 314.693,243.253 				"/>
				<polygon style="fill:#1A4687;" points="216.534,311.839 192.831,314.776 192.831,291.074 216.534,288.137 				"/>
				<polygon style="fill:#1A4687;" points="249.253,307.785 225.551,310.722 225.551,287.019 249.253,284.082 				"/>
				<polygon style="fill:#5093FC;" points="281.973,303.73 258.271,306.667 258.271,282.965 281.973,280.027 				"/>
				<polygon style="fill:#5093FC;" points="314.693,299.675 290.99,302.613 290.99,278.91 314.693,275.973 				"/>
				<polygon style="fill:#316EDC;" points="293.636,194.958 213.888,204.84 213.888,199.625 293.636,189.743 				"/>
			</g>
			<path style="fill:#53D4F0;" d="M279.426,300.367l-42.753,5.298c-1.808,0.224-3.275,1.872-3.275,3.68v28.309
				c0,1.808,1.466,3.093,3.275,2.869l5.519-0.684v10.325l4.894-10.932l32.339-4.007c1.808-0.224,3.274-1.872,3.274-3.68v-28.309
				C282.7,301.427,281.234,300.143,279.426,300.367z"/>
			<g>
				<path style="fill:#FFFFFF;" d="M412.595,241.138l-103.877,12.872c-1.808,0.224-3.275,1.872-3.275,3.68v22.851
					c0,1.809,1.466,3.093,3.275,2.869l5.519-0.684v10.325l4.894-10.932l93.463-11.582c1.808-0.224,3.275-1.872,3.275-3.68v-22.852
					C415.87,242.199,414.404,240.914,412.595,241.138z"/>
				<path style="fill:#DBE6FC;" d="M404.559,253.637l-87.804,10.881c-1.123,0.139-2.033-0.658-2.033-1.781l0,0
					c0-1.123,0.91-2.146,2.033-2.285l87.804-10.881c1.123-0.139,2.033,0.658,2.033,1.781l0,0
					C406.592,252.474,405.682,253.497,404.559,253.637z"/>
				<path style="fill:#DBE6FC;" d="M371.814,267.203l-55.059,6.823c-1.123,0.139-2.033-0.658-2.033-1.781l0,0
					c0-1.123,0.91-2.146,2.033-2.285l55.059-6.823c1.123-0.139,2.033,0.658,2.033,1.781l0,0
					C373.847,266.041,372.937,267.064,371.814,267.203z"/>
			</g>
			<g>
				<path style="fill:#316EDC;" d="M333.181,234.023v-39.486c0-1.119,0.907-2.138,2.025-2.277l73.707-9.134
					c1.119-0.139,2.025,0.656,2.025,1.774v39.486c0,1.119-0.907,2.138-2.025,2.276l-73.707,9.134
					C334.088,235.936,333.181,235.142,333.181,234.023z"/>
				<polygon style="fill:#FFFFFF;" points="368.007,195.285 340.27,198.723 340.27,226.46 368.007,223.023 				"/>
				<path style="fill:#DBE6FC;" d="M364.993,219.668l-6.996-3.165v-5.071l0.26,0.009c0.621,0.021,1.231-0.382,1.493-0.986
					l0.555-1.282c0.218-0.504,0.152-1.055-0.172-1.428l-0.417-0.479l0.174-2.458c0.055-0.777-0.084-1.531-0.403-2.194
					c-0.75-1.558-2.397-2.414-4.211-2.189l-2.123,0.263c-1.814,0.225-3.46,1.489-4.21,3.233c-0.319,0.742-0.458,1.531-0.403,2.293
					l0.174,2.415l-0.417,0.583c-0.324,0.453-0.391,1.02-0.172,1.471l0.555,1.144c0.262,0.539,0.872,0.791,1.493,0.616l0.26-0.073
					v5.071l-6.996,4.898c-1.471,1.03-2.579,2.493-3.168,4.121l27.891-3.456C367.572,221.522,366.464,220.333,364.993,219.668z"/>
				<polygon style="fill:#FFFFFF;" points="403.509,195.705 375.05,199.232 375.05,194.413 403.509,190.886 				"/>
				
					<line style="fill:none;stroke:#5093FC;stroke-width:2;stroke-linecap:round;stroke-linejoin:round;stroke-miterlimit:10;" x1="375.05" y1="206.052" x2="403.509" y2="202.525"/>
				
					<line style="fill:none;stroke:#5093FC;stroke-width:2;stroke-linecap:round;stroke-linejoin:round;stroke-miterlimit:10;" x1="375.05" y1="213.56" x2="403.509" y2="210.033"/>
				
					<line style="fill:none;stroke:#5093FC;stroke-width:2;stroke-linecap:round;stroke-linejoin:round;stroke-miterlimit:10;" x1="375.05" y1="221.068" x2="381.494" y2="220.269"/>
			</g>
			<path style="fill:#FFFFFF;" d="M60.721,103.637c0.485-0.06,0.968,0.038,1.368,0.298c4.218,2.74,9.247,3.842,14.542,3.185
				c13.131-1.627,23.813-13.633,23.813-26.763S89.761,57.868,76.63,59.495c-13.131,1.627-23.813,13.633-23.813,26.763
				c0,5.112,1.622,9.801,4.691,13.564c0.496,0.607,0.579,1.486,0.215,2.279l-2.112,4.613l4.049-2.68
				C59.993,103.816,60.358,103.682,60.721,103.637z"/>
			<g>
				<path style="fill:#1A4687;" d="M345.652,161.159V56.634c0-0.53,0.38-0.963,0.902-1.028l56.612-7.015
					c0.668-0.083,1.281,0.463,1.281,1.142v104.525c0,0.53-0.38,0.963-0.902,1.028l-56.612,7.015
					C346.265,162.384,345.652,161.838,345.652,161.159z"/>
				<polygon style="fill:#5093FC;" points="404.447,75.6 345.652,82.886 345.652,62.572 404.447,55.287 				"/>
				<polygon style="fill:#5093FC;" points="398.882,90.374 351.218,96.28 351.218,90.331 398.882,84.424 				"/>
				<polygon style="fill:#5093FC;" points="398.882,103.765 351.218,109.672 351.218,103.723 398.882,97.816 				"/>
				<polygon style="fill:#5093FC;" points="398.882,117.157 351.218,123.063 351.218,117.114 398.882,111.208 				"/>
				<polygon style="fill:#5093FC;" points="398.882,130.549 351.218,136.455 351.218,130.506 398.882,124.599 				"/>
				<path style="fill:#316EDC;" d="M404.447,55.287l-58.795,7.286v-5.939c0-0.53,0.38-0.963,0.902-1.028l56.612-7.015
					c0.668-0.083,1.281,0.463,1.281,1.142V55.287z"/>
				<polygon style="fill:#FFFFFF;" points="386.326,146.95 363.773,149.745 363.773,143.151 386.326,140.356 				"/>
			</g>
			<g>
				<path style="fill:#1A4687;" d="M383.504,346.715l-58.73,7.278c-5.458,0.676-9.882-3.2-9.882-8.658V315.03
					c0-5.458,4.424-10.43,9.882-11.107l58.73-7.278c5.458-0.676,9.882,3.2,9.882,8.658v30.305
					C393.386,341.066,388.961,346.039,383.504,346.715z"/>
				
					<ellipse transform="matrix(0.6849 -0.7286 0.7286 0.6849 -125.4505 360.5507)" style="fill:#316EDC;" cx="354.138" cy="325.319" rx="15.087" ry="13.33"/>
				<polygon style="fill:#FFFFFF;" points="349.848,318.42 362.719,324.256 349.848,333.283 				"/>
			</g>
			<polygon style="fill:#FFFFFF;" points="314.891,86.258 318.697,92.831 326.573,93.298 321.05,99.78 322.111,107.584 
				314.891,105.018 307.671,109.374 308.732,101.306 303.209,96.193 311.085,93.774 			"/>
			<path style="fill:#FFFFFF;" d="M294.981,352.595c0,2.985-2.419,5.704-5.404,6.074c-2.984,0.37-5.404-1.75-5.404-4.734
				c0-2.985,2.419-5.704,5.404-6.074C292.562,347.491,294.981,349.61,294.981,352.595z"/>
			<path style="fill:#FFFFFF;" d="M171.166,240.443c0,2.984-2.419,5.704-5.404,6.074c-2.984,0.37-5.404-1.75-5.404-4.734
				s2.419-5.704,5.404-6.074C168.746,235.339,171.166,237.459,171.166,240.443z"/>
			<path style="fill:#FFFFFF;" d="M290.811,63.719c0,2.985-2.419,5.704-5.404,6.073c-2.985,0.37-5.404-1.75-5.404-4.734
				c0-2.984,2.419-5.704,5.404-6.073C288.391,58.615,290.811,60.734,290.811,63.719z"/>
			<path style="fill:#FFFFFF;" d="M412.823,167.967c0,2.049-1.661,3.915-3.709,4.169c-2.048,0.254-3.709-1.201-3.709-3.25
				c0-2.049,1.661-3.915,3.709-4.169C411.162,164.464,412.823,165.919,412.823,167.967z"/>
			<path style="fill:#FFFFFF;" d="M332.197,135.996c0,2.048-1.661,3.915-3.709,4.169c-2.049,0.254-3.709-1.201-3.709-3.25
				c0-2.049,1.661-3.915,3.709-4.169C330.537,132.492,332.197,133.947,332.197,135.996z"/>
			<path style="fill:#FFFFFF;" d="M307.521,59.92c0,2.049-1.661,3.915-3.709,4.169c-2.049,0.254-3.709-1.201-3.709-3.25
				c0-2.049,1.661-3.915,3.709-4.169C305.86,56.417,307.521,57.871,307.521,59.92z"/>
			<path style="fill:#FFFFFF;" d="M85.051,317.442c0,2.162-1.753,4.132-3.915,4.4c-2.162,0.268-3.915-1.268-3.915-3.43
				c0-2.162,1.753-4.132,3.915-4.4C83.298,313.744,85.051,315.279,85.051,317.442z"/>
		</g>
		<g>
			<g>
				<g>
					<path style="fill:#FFFFFF;" d="M434.494,106.757c-1.562-1.37-4.094-1.059-5.655,0.694l-1.331,1.494l-1.331-1.167
						c-1.562-1.37-4.094-1.059-5.655,0.694c-1.561,1.753-1.561,4.285,0,5.655l6.986,6.128l6.986-7.844
						C436.055,110.659,436.055,108.127,434.494,106.757z"/>
				</g>
				<g>
					<path style="fill:#FFFFFF;" d="M130.153,67.936c-1.562-1.37-4.094-1.059-5.655,0.694l-1.331,1.494l-1.331-1.167
						c-1.562-1.37-4.094-1.059-5.655,0.694c-1.562,1.754-1.562,4.285,0,5.655l6.986,6.128l6.986-7.844
						C131.715,71.838,131.715,69.306,130.153,67.936z"/>
				</g>
				<g>
					<g>
						<path style="fill:#FFFFFF;" d="M181.5,348.034V346.5l1.158-0.142c0.362-0.044,0.656-0.374,0.656-0.736v-2.09
							c0-0.362-0.294-0.62-0.656-0.575l-12.373,1.519c-0.362,0.045-0.655,0.374-0.655,0.736v2.09c0,0.362,0.293,0.62,0.655,0.575
							l1.158-0.142v1.533c0,1.885,1.056,3.383,2.595,4.054c-1.539,1.049-2.595,2.806-2.595,4.691v1.533l-1.158,0.142
							c-0.362,0.044-0.655,0.374-0.655,0.736v2.09c0,0.362,0.293,0.62,0.655,0.575l12.373-1.519
							c0.362-0.045,0.656-0.374,0.656-0.736v-2.09c0-0.362-0.294-0.62-0.656-0.575l-1.158,0.142v-1.533
							c0-1.886-1.055-3.383-2.595-4.054C180.444,351.676,181.5,349.919,181.5,348.034z M180.189,356.94v1.533l-7.434,0.913v-1.533
							c0-2.049,1.668-3.922,3.717-4.174C178.521,353.428,180.189,354.891,180.189,356.94z M176.472,352.368L176.472,352.368
							c-2.05,0.252-3.717-1.211-3.717-3.261v-1.533l7.434-0.913v1.533C180.189,350.244,178.521,352.116,176.472,352.368z"/>
					</g>
				</g>
				<g>
					<g>
						<path style="fill:#FFFFFF;" d="M420.059,299.464l-3.777-3.314c0.903-1.4,1.437-3.031,1.437-4.722
							c0-4.384-3.566-7.513-7.95-6.974c-4.384,0.538-7.95,4.542-7.95,8.927c0,4.384,3.566,7.512,7.95,6.974
							c1.69-0.208,3.256-0.934,4.545-1.995l3.777,3.313L420.059,299.464z M409.769,297.571c-2.849,0.35-5.167-1.684-5.167-4.533
							c0-2.849,2.318-5.452,5.167-5.802c2.848-0.35,5.167,1.684,5.167,4.533C414.936,294.618,412.617,297.222,409.769,297.571z"/>
					</g>
				</g>
				<g>
					<g>
						<path style="fill:#FFFFFF;" d="M315.332,160.06l-3.777-3.313c0.903-1.4,1.437-3.032,1.437-4.722
							c0-4.384-3.566-7.512-7.95-6.974c-4.384,0.538-7.95,4.542-7.95,8.926c0,4.384,3.566,7.512,7.95,6.974
							c1.69-0.208,3.256-0.934,4.546-1.995l3.777,3.313L315.332,160.06z M305.041,158.168c-2.849,0.35-5.167-1.684-5.167-4.533
							c0-2.849,2.319-5.452,5.167-5.801c2.849-0.35,5.167,1.684,5.167,4.533C310.208,155.215,307.89,157.818,305.041,158.168z"/>
					</g>
				</g>
			</g>
		</g>
	</g>
</g>
<g id="DESIGNED_BY_FREEPIK">
	<g>
		<g id="XMLID_141_">
			<g id="XMLID_160_">
				<path id="XMLID_168_" style="fill:#1D262C;" d="M260.104,465.465c-0.432,0.443-0.803,0.931-1.108,1.453l-0.465-0.241
					c-0.067-0.298-0.349-0.503-0.659-0.466c-0.331,0.039-0.568,0.339-0.529,0.67c0.039,0.331,0.339,0.568,0.67,0.529
					c0.065-0.008,0.127-0.026,0.183-0.052l0.452,0.234c-0.251,0.554-0.433,1.139-0.539,1.744l0.747,0.132
					c0.23-1.306,0.85-2.507,1.792-3.473L260.104,465.465z"/>
				<path id="XMLID_167_" style="fill:#1D262C;" d="M265.592,463.163c-0.171,0-0.341,0.006-0.51,0.017l-0.074-0.626
					c0.188-0.149,0.296-0.389,0.266-0.645c-0.046-0.393-0.402-0.674-0.795-0.628c-0.393,0.046-0.674,0.402-0.628,0.795
					c0.03,0.254,0.189,0.461,0.405,0.564l0.073,0.624c-0.714,0.116-1.403,0.332-2.06,0.646l0.327,0.684
					c0.934-0.447,1.942-0.673,2.995-0.673c0.496,0,0.993,0.053,1.475,0.158l0.161-0.741
					C266.692,463.222,266.142,463.163,265.592,463.163z"/>
				<path id="XMLID_166_" style="fill:#1D262C;" d="M272.194,465.711c0.331-0.04,0.566-0.341,0.526-0.672
					c-0.04-0.331-0.341-0.566-0.672-0.526c-0.309,0.038-0.535,0.304-0.53,0.609l-0.416,0.363c-0.418-0.43-0.89-0.813-1.408-1.139
					l-0.404,0.641c1.134,0.715,2.021,1.726,2.563,2.925l0.691-0.313c-0.251-0.554-0.568-1.072-0.942-1.545l0.402-0.351
					C272.065,465.716,272.129,465.719,272.194,465.711z"/>
				<path id="XMLID_165_" style="fill:#1D262C;" d="M265.044,473.372c-0.386,0.023-0.775,0.035-1.157,0.035
					c-0.88,0-1.733-0.061-2.478-0.179c-0.39-0.062-0.846-0.155-1.27-0.292c1.046,1.861,3.069,3.125,5.388,3.125
					c2.855,0,5.262-1.916,5.95-4.504c-0.682,0.449-1.505,0.825-2.459,1.123C267.839,473.047,266.464,473.286,265.044,473.372z"/>
				<path id="XMLID_161_" style="fill:#1D262C;" d="M265.592,464.68c-3.352,0-6.08,2.666-6.08,5.943
					c0,0.426,0.046,0.849,0.137,1.261c0.673,0.483,2.706,0.89,5.348,0.731c2.879-0.173,5.297-0.957,6.672-2.159
					c-0.005-0.195-0.021-0.39-0.045-0.582C271.244,466.913,268.65,464.68,265.592,464.68z M263.432,471.194
					c-1.02,0-1.85-0.83-1.85-1.85c0-1.02,0.83-1.85,1.85-1.85c1.02,0,1.85,0.83,1.85,1.85
					C265.282,470.365,264.452,471.194,263.432,471.194z M268.17,470.286c-0.75,0-1.36-0.61-1.36-1.36s0.61-1.361,1.36-1.361
					c0.75,0,1.361,0.61,1.361,1.361S268.92,470.286,268.17,470.286z"/>
			</g>
			<path id="XMLID_158_" style="fill:#1D262C;" d="M281.595,466.547c-0.295-0.116-0.805-0.309-1.382-0.237
				c-0.551,0.069-0.844,0.341-0.844,1.007v0.866h2.228v1.717h-2.228v5.455h-1.932v-5.455h-1.34v-1.717h1.34v-0.888
				c0-1.68,0.896-2.783,2.568-2.783c0.643,0,1.157,0.122,1.59,0.308L281.595,466.547z"/>
			<path id="XMLID_156_" style="fill:#1D262C;" d="M286.298,469.879c-0.177-0.03-0.358-0.046-0.526-0.046
				c-0.896,0-1.51,0.548-1.51,1.614v3.908h-1.932v-7.172h1.873v0.785c0.451-0.673,1.14-0.977,2.021-0.977
				c0.414,0,0.848,0.128,1.094,0.337L286.298,469.879z"/>
			<path id="XMLID_153_" style="fill:#1D262C;" d="M293.965,471.757c0,0.222-0.015,0.489-0.037,0.651h-5.085
				c0.207,1.036,0.933,1.488,1.843,1.488c0.622,0,1.295-0.252,1.813-0.688l1.132,1.243c-0.814,0.748-1.85,1.088-3.057,1.088
				c-2.198,0-3.723-1.495-3.723-3.753c0-2.258,1.48-3.797,3.627-3.797C292.544,467.99,293.958,469.522,293.965,471.757z
				 M288.851,471.091h3.175c-0.177-0.918-0.733-1.436-1.562-1.436C289.554,469.655,289.021,470.203,288.851,471.091z"/>
			<path id="XMLID_150_" style="fill:#1D262C;" d="M301.618,471.757c0,0.222-0.015,0.489-0.037,0.651h-5.085
				c0.207,1.036,0.933,1.488,1.843,1.488c0.622,0,1.295-0.252,1.813-0.688l1.132,1.243c-0.814,0.748-1.85,1.088-3.057,1.088
				c-2.198,0-3.723-1.495-3.723-3.753c0-2.258,1.48-3.797,3.627-3.797C300.197,467.99,301.611,469.522,301.618,471.757z
				 M296.504,471.091h3.175c-0.178-0.918-0.733-1.436-1.562-1.436C297.207,469.655,296.674,470.203,296.504,471.091z"/>
			<path id="XMLID_147_" style="fill:#1D262C;" d="M309.964,471.764c0,2.154-1.495,3.775-3.471,3.775
				c-0.962,0-1.643-0.378-2.109-0.933v3.708h-1.924v-10.133h1.887v0.792c0.466-0.585,1.155-0.984,2.139-0.984
				C308.469,467.99,309.964,469.61,309.964,471.764z M304.287,471.764c0,1.132,0.747,1.976,1.843,1.976
				c1.14,0,1.85-0.881,1.85-1.976c0-1.095-0.71-1.976-1.85-1.976C305.035,469.788,304.287,470.632,304.287,471.764z"/>
			<path id="XMLID_144_" style="fill:#1D262C;" d="M313.068,465.836c0,0.696-0.54,1.229-1.236,1.229
				c-0.696,0-1.229-0.533-1.229-1.229c0-0.696,0.533-1.243,1.229-1.243C312.527,464.592,313.068,465.14,313.068,465.836z
				 M312.809,475.354h-1.932v-7.172h1.932V475.354z"/>
			<path id="XMLID_142_" style="fill:#1D262C;" d="M316.032,470.736l2.701-2.554h2.368l-3.479,3.375l3.501,3.797h-2.376
				l-2.716-2.901v2.901H314.1v-10.658h1.932V470.736z"/>
		</g>
		<g>
			<path style="fill:#1D262C;" d="M184.412,475.289v-1.055c-0.527,0.718-1.391,1.23-2.387,1.23c-1.846,0-3.149-1.406-3.149-3.706
				c0-2.256,1.289-3.721,3.149-3.721c0.952,0,1.816,0.469,2.387,1.245v-3.765h1.099v9.77H184.412z M184.412,473.37v-3.208
				c-0.395-0.615-1.245-1.143-2.124-1.143c-1.421,0-2.27,1.172-2.27,2.739c0,1.567,0.85,2.724,2.27,2.724
				C183.168,474.483,184.017,473.986,184.412,473.37z"/>
			<path style="fill:#1D262C;" d="M186.932,471.744c0-2.051,1.465-3.706,3.486-3.706c2.139,0,3.398,1.67,3.398,3.794v0.279h-5.727
				c0.088,1.333,1.025,2.446,2.549,2.446c0.805,0,1.626-0.322,2.182-0.894l0.527,0.718c-0.703,0.703-1.655,1.084-2.812,1.084
				C188.44,475.465,186.932,473.956,186.932,471.744z M190.403,468.947c-1.509,0-2.256,1.274-2.314,2.358h4.643
				C192.718,470.25,192.015,468.947,190.403,468.947z"/>
			<path style="fill:#1D262C;" d="M194.607,474.351l0.571-0.791c0.469,0.542,1.362,1.011,2.329,1.011c1.084,0,1.67-0.513,1.67-1.216
				c0-1.714-4.38-0.659-4.38-3.281c0-1.098,0.952-2.036,2.636-2.036c1.201,0,2.051,0.454,2.622,1.026l-0.513,0.762
				c-0.424-0.513-1.201-0.894-2.109-0.894c-0.967,0-1.567,0.483-1.567,1.113c0,1.552,4.38,0.527,4.38,3.281
				c0,1.187-0.952,2.138-2.783,2.138C196.306,475.465,195.325,475.113,194.607,474.351z"/>
			<path style="fill:#1D262C;" d="M201.477,466.471c0-0.41,0.337-0.747,0.732-0.747c0.41,0,0.747,0.337,0.747,0.747
				c0,0.41-0.337,0.732-0.747,0.732C201.814,467.203,201.477,466.881,201.477,466.471z M201.667,475.289v-7.075h1.099v7.075H201.667
				z"/>
			<path style="fill:#1D262C;" d="M204.582,477.105l0.556-0.82c0.586,0.703,1.289,0.967,2.3,0.967c1.172,0,2.27-0.571,2.27-2.124
				v-1.011c-0.513,0.718-1.377,1.26-2.373,1.26c-1.845,0-3.149-1.377-3.149-3.662c0-2.27,1.289-3.677,3.149-3.677
				c0.952,0,1.802,0.469,2.373,1.245v-1.069h1.098v6.87c0,2.344-1.641,3.076-3.369,3.076
				C206.237,478.16,205.417,477.926,204.582,477.105z M209.709,473.253v-3.091c-0.381-0.615-1.23-1.143-2.109-1.143
				c-1.421,0-2.27,1.128-2.27,2.695c0,1.553,0.849,2.695,2.27,2.695C208.478,474.41,209.328,473.868,209.709,473.253z"/>
			<path style="fill:#1D262C;" d="M217.413,475.289v-4.629c0-1.245-0.63-1.641-1.582-1.641c-0.865,0-1.685,0.527-2.095,1.099v5.17
				h-1.099v-7.075h1.099v1.025c0.498-0.586,1.465-1.201,2.519-1.201c1.48,0,2.256,0.747,2.256,2.285v4.966H217.413z"/>
			<path style="fill:#1D262C;" d="M219.932,471.744c0-2.051,1.465-3.706,3.486-3.706c2.139,0,3.398,1.67,3.398,3.794v0.279h-5.727
				c0.088,1.333,1.025,2.446,2.549,2.446c0.806,0,1.626-0.322,2.183-0.894l0.527,0.718c-0.703,0.703-1.655,1.084-2.812,1.084
				C221.441,475.465,219.932,473.956,219.932,471.744z M223.404,468.947c-1.509,0-2.256,1.274-2.314,2.358h4.643
				C225.718,470.25,225.015,468.947,223.404,468.947z"/>
			<path style="fill:#1D262C;" d="M233.35,475.289v-1.055c-0.527,0.718-1.392,1.23-2.388,1.23c-1.846,0-3.149-1.406-3.149-3.706
				c0-2.256,1.289-3.721,3.149-3.721c0.952,0,1.817,0.469,2.388,1.245v-3.765h1.098v9.77H233.35z M233.35,473.37v-3.208
				c-0.396-0.615-1.245-1.143-2.124-1.143c-1.421,0-2.27,1.172-2.27,2.739c0,1.567,0.849,2.724,2.27,2.724
				C232.105,474.483,232.954,473.986,233.35,473.37z"/>
			<path style="fill:#1D262C;" d="M239.692,475.289v-9.77h1.098v3.765c0.572-0.776,1.421-1.245,2.388-1.245
				c1.845,0,3.149,1.465,3.149,3.721c0,2.299-1.304,3.706-3.149,3.706c-0.996,0-1.86-0.513-2.388-1.23v1.055H239.692z
				 M242.9,474.483c1.436,0,2.285-1.157,2.285-2.724c0-1.568-0.85-2.739-2.285-2.739c-0.864,0-1.728,0.527-2.109,1.143v3.208
				C241.171,473.986,242.036,474.483,242.9,474.483z"/>
			<path style="fill:#1D262C;" d="M247.528,477.061c0.161,0.073,0.425,0.117,0.601,0.117c0.483,0,0.805-0.161,1.055-0.747
				l0.469-1.069l-2.959-7.148h1.187l2.358,5.8l2.344-5.8h1.201l-3.545,8.51c-0.425,1.025-1.143,1.421-2.08,1.435
				c-0.234,0-0.601-0.044-0.806-0.103L247.528,477.061z"/>
		</g>
	</g>
</g>
</svg>
