<?xml version="1.0" standalone="no"?>
<!DOCTYPE svg PUBLIC "-//W3C//DTD SVG 20010904//EN"
 "http://www.w3.org/TR/2001/REC-SVG-20010904/DTD/svg10.dtd">
<svg version="1.0" xmlns="http://www.w3.org/2000/svg"
 width="7730.000000pt" height="7730.000000pt" viewBox="0 0 7730.000000 7730.000000"
 preserveAspectRatio="xMidYMid meet">
<metadata>
Created by potrace 1.16, written by Peter Selinger 2001-2019
</metadata>
<g transform="translate(0.000000,7730.000000) scale(0.100000,-0.100000)"
fill="#000000" stroke="none">
<path d="M49641 64184 c-882 -107 -1660 -777 -1904 -1639 -79 -281 -87 -367
-94 -1042 l-6 -573 314 0 c594 0 1355 29 1894 71 1311 102 2210 311 2681 624
90 60 239 195 249 224 12 40 -228 515 -390 771 -276 436 -623 807 -1000 1071
-256 179 -593 343 -870 424 -276 80 -584 104 -874 69z"/>
<path d="M58910 49063 c-25 -2 -148 -35 -275 -73 -302 -90 -695 -199 -850
-236 -11 -2 18 16 65 41 47 25 76 44 65 42 -72 -13 -2293 -533 -2290 -536 4
-4 79 9 485 85 477 90 1113 227 1502 325 64 16 120 29 125 29 4 0 -39 -28 -96
-62 -196 -119 -490 -356 -657 -530 -1156 -1202 -1832 -3340 -1999 -6323 -64
-1140 -55 -2639 30 -5470 41 -1353 236 -6580 246 -6589 2 -3 40 75 84 172 238
531 619 1314 872 1797 865 1648 1789 3079 2818 4365 121 151 240 296 265 322
80 82 177 86 251 9 31 -33 48 -75 142 -357 530 -1590 898 -3371 1057 -5109
169 -1865 88 -3722 -236 -5369 -19 -98 -34 -179 -32 -181 2 -2 73 49 158 112
665 493 1340 929 1970 1272 102 55 190 104 197 108 13 9 26 1081 44 3623 13
1807 6 7303 -10 8555 -57 4342 -146 6592 -296 7453 -219 1256 -1005 2071
-2310 2396 -399 99 -992 157 -1325 129z"/>
<path d="M27515 46058 c-9 -13 -26 -39 -38 -58 -33 -50 -70 -53 -98 -6 -38 65
-78 60 -129 -15 -73 -108 -235 -231 -413 -314 -177 -82 -340 -132 -632 -190
-521 -104 -857 -226 -1137 -414 -308 -206 -472 -458 -508 -780 -6 -52 -16
-101 -22 -108 -14 -17 -52 -16 -89 3 -82 42 -194 21 -295 -56 -70 -53 -118
-118 -146 -200 -33 -95 -30 -251 6 -375 69 -233 239 -490 450 -677 128 -113
138 -131 94 -166 -155 -120 -163 -220 -28 -344 137 -126 348 -222 668 -305
l33 -8 -142 -205 c-78 -113 -256 -368 -396 -567 -139 -200 -253 -371 -253
-381 0 -29 148 -198 250 -287 109 -94 237 -188 375 -273 126 -78 136 -85 110
-77 -287 92 -595 98 -916 16 -198 -50 -437 -149 -459 -190 -13 -26 3 -67 29
-76 14 -4 50 8 108 35 258 122 586 191 842 176 457 -26 824 -248 1108 -672 23
-33 138 -231 256 -440 370 -653 839 -1452 969 -1649 35 -53 74 -69 104 -44 27
22 14 62 -55 173 -217 348 -592 988 -926 1581 -207 367 -258 451 -334 550 -64
85 -224 248 -301 308 -36 28 -69 55 -75 59 -5 5 28 -7 75 -27 189 -81 508
-201 514 -194 8 9 128 253 174 354 47 104 90 192 377 780 64 132 123 257 132
277 l15 37 131 -6 c266 -11 575 46 751 140 73 39 160 116 198 177 88 138 103
315 69 785 -12 160 -28 337 -37 395 -46 309 -185 781 -384 1309 -50 131 -90
241 -90 244 0 4 26 20 58 36 77 39 224 137 295 197 379 318 361 990 -36 1360
-76 71 -177 134 -215 134 -12 0 -28 -10 -37 -22z"/>
<path d="M43755 45905 c-308 -67 -608 -362 -724 -711 -51 -151 -36 -275 49
-402 139 -208 493 -399 855 -462 149 -26 235 -65 326 -149 82 -75 156 -181
222 -318 57 -122 69 -185 44 -246 -9 -20 -174 -302 -368 -625 -391 -652 -391
-652 -537 -724 -77 -39 -91 -42 -161 -43 -127 0 -189 44 -326 235 -155 214
-316 396 -410 460 -133 91 -244 95 -334 11 -70 -65 -355 -701 -487 -1085 -49
-143 -54 -198 -25 -261 34 -72 76 -101 241 -165 451 -175 985 -324 1211 -337
97 -6 141 8 191 61 16 17 151 195 300 396 149 201 308 412 353 470 52 66 104
148 140 219 142 284 299 476 445 545 54 26 77 31 135 30 157 -1 319 -93 382
-218 l25 -48 45 6 c69 9 140 53 229 141 182 180 200 364 62 613 -37 67 -43 85
-43 137 0 85 30 134 126 206 180 136 255 288 229 469 -11 80 -29 131 -75 218
-139 265 -370 385 -707 366 -114 -7 -119 -6 -174 21 -43 21 -62 38 -83 73 -43
75 -82 109 -145 127 -58 17 -124 65 -149 109 -8 14 -12 83 -12 216 0 181 -2
199 -24 253 -57 143 -174 262 -335 341 -159 79 -338 105 -491 71z"/>
<path d="M45810 40825 c0 -4 10 -21 22 -38 15 -20 23 -49 26 -86 6 -98 -38
-141 -243 -241 -312 -152 -638 -215 -1120 -214 -264 0 -399 9 -650 45 -236 34
-307 84 -386 272 -23 56 -45 105 -48 109 -18 20 -766 -147 -1022 -229 l-87
-28 -117 -140 c-590 -706 -1381 -1517 -2119 -2174 -810 -721 -1644 -1343
-2422 -1806 -137 -82 -252 -151 -257 -155 -11 -9 113 -495 183 -719 77 -244
170 -494 267 -717 61 -141 79 -174 95 -174 68 0 599 110 893 185 1296 331
2457 904 3380 1669 70 59 131 106 136 106 5 0 9 -6 9 -14 0 -20 138 -441 225
-686 40 -113 184 -504 320 -870 1311 -3530 1643 -4533 1970 -5965 50 -217 51
-230 33 -233 -12 -2 -17 -9 -14 -20 3 -9 14 -50 25 -91 11 -41 22 -75 24 -77
3 -3 1086 142 1125 151 13 3 55 10 95 15 40 5 155 21 257 34 102 14 256 34
343 46 86 11 228 29 315 41 86 11 180 22 207 25 28 2 354 42 725 89 580 72
1259 154 1865 226 88 10 351 39 584 63 233 25 425 47 428 50 8 8 -36 149 -49
158 -55 35 -173 61 -329 73 l-75 6 -42 332 c-24 183 -42 335 -42 338 0 4 11
10 25 13 39 10 92 63 111 112 14 38 16 68 11 202 -10 278 -60 450 -163 555
-26 26 -50 44 -54 40 -4 -4 -17 -33 -30 -63 -89 -213 -286 -599 -417 -818 -41
-68 -73 -126 -71 -127 2 -2 50 3 106 12 56 9 104 14 106 12 5 -5 88 -651 84
-654 -2 -2 -68 -20 -148 -40 -155 -39 -198 -59 -228 -106 l-19 -31 -104 181
c-145 253 -123 234 -200 166 -147 -129 -361 -253 -545 -314 -156 -52 -243 -66
-414 -66 -176 1 -271 16 -445 72 -325 105 -585 261 -585 351 0 34 3 35 157 88
213 72 374 160 490 268 86 79 123 138 123 194 0 40 -5 48 -53 95 -29 29 -107
84 -172 122 -231 136 -399 298 -490 474 -23 46 -19 86 13 122 42 47 90 45 167
-7 119 -82 242 -145 350 -182 l110 -37 170 1 c233 1 627 30 690 51 70 23 154
109 183 186 34 91 48 426 33 800 -23 582 -79 1069 -182 1576 -22 106 -38 195
-37 196 2 1 53 14 113 28 376 91 737 106 1050 42 282 -57 518 -171 729 -351
42 -37 79 -65 81 -63 5 6 34 291 45 449 24 346 8 928 -35 1280 -106 860 -369
1754 -752 2550 -36 74 -98 232 -138 350 -89 265 -142 400 -235 606 -348 772
-871 1421 -1455 1807 -167 110 -209 129 -396 181 -414 113 -884 205 -1339 261
-314 38 -770 74 -770 60z m1625 -10170 c29 -29 32 -55 7 -84 -13 -17 -45 -28
-132 -46 -155 -33 -362 -95 -550 -166 -329 -124 -386 -156 -433 -244 -26 -51
-35 -194 -17 -301 10 -66 10 -78 -4 -100 -23 -34 -89 -35 -111 -1 -31 48 -46
266 -24 369 22 102 83 193 166 246 113 73 652 267 873 315 63 14 124 28 135
30 44 10 67 6 90 -18z"/>
<path d="M35025 39778 c-16 -6 -64 -34 -105 -63 -166 -116 -287 -122 -689 -32
-162 35 -202 41 -311 41 -96 1 -137 -3 -177 -17 -44 -16 -60 -17 -112 -7 -164
30 -308 -58 -424 -257 -74 -128 -543 -582 -865 -838 -425 -338 -861 -586
-1270 -724 -602 -202 -1179 -209 -1796 -19 -103 31 -131 37 -138 26 -41 -62
-225 -378 -305 -523 -208 -377 -336 -637 -453 -920 -30 -71 -57 -134 -61 -138
-16 -20 -659 597 -957 920 l-123 133 -87 -77 c-696 -614 -1270 -1210 -1597
-1659 -121 -165 -141 -200 -124 -221 22 -26 275 -212 436 -321 650 -437 1336
-779 2063 -1027 1351 -460 2625 -495 3835 -105 207 66 344 74 506 29 84 -23
106 -34 697 -346 278 -146 500 -257 555 -276 90 -31 96 -32 262 -32 166 0 172
1 265 33 187 65 345 186 450 347 69 105 181 337 219 452 34 105 64 241 59 274
-3 19 -39 37 -243 119 -958 387 -1609 651 -1612 654 -2 2 26 52 62 112 l66
109 -38 6 c-56 10 -281 -8 -388 -31 -337 -70 -568 -227 -687 -467 l-40 -81
-82 -20 c-139 -35 -263 -45 -469 -39 -642 18 -1367 295 -2150 820 -150 100
-421 298 -517 377 l-25 21 25 -6 c58 -12 358 -45 514 -56 217 -15 704 -7 881
15 1338 165 2386 874 3104 2101 139 236 324 634 391 840 12 39 24 71 25 72 1
2 35 -8 76 -22 322 -110 883 -225 1413 -290 l129 -16 563 317 c561 316 563
317 548 340 -66 100 -331 54 -666 -115 -54 -27 -98 -47 -98 -45 0 2 56 73 125
158 68 84 121 156 118 160 -14 14 -136 5 -191 -13 -32 -11 -141 -61 -243 -111
-216 -107 -269 -124 -342 -115 -58 7 -181 37 -240 58 l-39 13 229 173 c125 96
232 177 237 182 5 4 -3 28 -19 54 -19 33 -39 52 -68 66 -47 21 -60 22 -102 7z"/>
<path d="M23332 37815 c-13 -10 -22 -27 -22 -41 0 -14 42 -107 93 -207 402
-786 1009 -1520 1650 -1996 176 -131 182 -134 212 -127 29 7 49 39 40 66 -3
10 -43 45 -88 76 -681 474 -1350 1276 -1753 2102 -36 72 -69 132 -74 132 -4 0
-14 2 -22 5 -7 3 -23 -2 -36 -10z"/>
<path d="M25715 28139 c-328 -120 -807 -244 -1165 -303 -198 -33 -463 -62
-695 -76 -239 -14 -772 -1 -965 25 -19 2 -75 9 -125 16 -305 37 -601 97 -920
184 -171 47 -453 138 -496 161 -33 17 -25 57 -83 -411 -82 -648 -86 -706 -86
-1162 1 -2545 252 -6071 716 -10023 178 -1523 414 -3292 447 -3356 9 -17 30
-44 47 -61 29 -29 34 -45 96 -339 74 -351 74 -297 1 -567 -147 -536 -201
-1101 -143 -1472 39 -248 103 -285 571 -326 181 -15 706 -13 991 6 274 17 653
56 802 81 45 7 107 66 128 120 35 93 -3 247 -126 499 -120 247 -280 465 -515
701 -243 243 -491 436 -862 669 l-47 30 -43 260 c-23 143 -42 262 -42 265 0 3
18 13 40 24 57 26 92 83 93 149 0 29 -6 282 -13 562 -15 574 -10 2406 8 3045
67 2288 158 4182 322 6690 39 596 44 659 54 648 2 -2 47 -172 99 -378 530
-2088 1851 -7919 2251 -9940 52 -261 100 -499 106 -527 21 -103 106 -193 205
-218 l48 -12 58 -309 c31 -170 59 -321 62 -336 4 -22 2 -28 -13 -28 -23 0 -81
-123 -141 -295 -133 -387 -200 -825 -200 -1308 0 -173 2 -214 16 -243 35 -73
-117 -68 1804 -55 1944 13 1774 5 1818 91 12 24 22 59 22 76 0 145 -500 670
-925 970 -420 297 -932 538 -1451 684 -59 16 -108 31 -110 33 -2 2 -54 791
-54 819 0 3 24 20 53 36 62 35 101 78 131 142 29 64 26 124 -39 830 -404 4406
-920 8946 -1506 13245 -98 724 -98 725 -108 724 -3 0 -55 -18 -116 -40z"/>
<path d="M49230 26390 c-500 -65 -668 -87 -855 -111 -210 -26 -246 -38 -315
-108 -60 -60 -90 -128 -90 -203 0 -38 235 -997 286 -1167 22 -73 32 -90 77
-135 60 -59 125 -86 204 -86 102 0 1236 150 1279 170 54 23 120 84 144 131 34
66 39 112 30 317 -5 109 -14 319 -19 467 -21 526 -21 535 -42 591 -27 70 -109
147 -181 169 -72 21 -107 19 -518 -35z m351 -185 c52 -19 103 -65 132 -120 19
-37 22 -74 39 -495 10 -250 16 -474 13 -497 -10 -71 -71 -144 -145 -174 -26
-11 -923 -129 -975 -129 -63 1 -159 62 -191 121 -22 43 -234 904 -234 952 0
84 69 180 149 208 30 11 1067 146 1132 148 20 1 56 -6 80 -14z"/>
<path d="M32315 24500 c-209 -33 -402 -140 -561 -313 -256 -279 -493 -843
-639 -1522 -104 -480 -207 -1347 -260 -2175 -32 -505 -37 -663 -42 -1354 l-6
-709 -171 -191 c-172 -192 -437 -480 -664 -721 l-122 -130 77 -73 78 -72 50
53 c319 342 475 510 605 652 85 94 158 172 162 173 4 2 8 -21 8 -50 0 -77 28
-360 51 -517 97 -668 317 -1169 664 -1515 211 -211 352 -282 549 -274 92 3
108 7 180 41 169 80 271 190 504 539 295 441 578 966 783 1446 l73 172 17 -97
c72 -427 282 -724 565 -798 86 -22 227 -20 310 6 138 42 255 121 391 262 113
118 190 225 478 664 l250 382 13 -87 c24 -170 70 -280 154 -368 101 -107 210
-154 355 -154 151 0 246 36 598 225 77 41 167 84 200 94 104 34 95 48 99 -134
4 -183 22 -268 79 -381 87 -170 267 -265 443 -235 133 24 221 78 434 271 137
123 214 180 281 206 24 10 45 18 46 18 2 2 -46 198 -50 202 -6 6 -76 -20 -133
-49 -72 -37 -154 -100 -294 -227 -195 -176 -265 -216 -370 -208 -101 7 -174
86 -206 222 -22 94 -21 297 1 434 9 57 15 105 13 107 -2 2 -44 8 -95 14 -194
24 -315 -14 -649 -200 -253 -140 -368 -172 -485 -134 -71 24 -148 100 -176
175 -32 85 -46 201 -39 318 9 138 23 214 105 567 39 164 69 300 68 301 -1 2
-241 -360 -532 -804 -292 -443 -563 -851 -604 -906 -145 -197 -297 -326 -434
-368 -289 -87 -525 157 -608 632 -24 134 -36 455 -21 565 5 39 32 147 61 240
29 94 70 240 92 325 22 85 42 162 45 172 4 13 -15 23 -92 48 -116 39 -105 46
-165 -109 -53 -137 -102 -318 -128 -468 -49 -293 -378 -1074 -679 -1613 -173
-311 -445 -736 -571 -892 -142 -177 -284 -240 -428 -192 -145 49 -352 247
-508 487 -70 108 -170 317 -219 457 -113 322 -180 710 -207 1207 l-12 220 128
149 c269 313 554 679 773 991 983 1403 1414 2838 1246 4148 -24 182 -66 332
-131 465 -49 102 -66 125 -143 202 -94 94 -175 142 -295 173 -76 20 -213 27
-290 15z m260 -227 c102 -32 198 -112 258 -214 106 -182 160 -511 160 -979 0
-350 -27 -614 -99 -960 -203 -975 -681 -1930 -1486 -2967 -118 -152 -347 -435
-375 -463 -14 -13 -15 45 -10 520 6 536 15 778 42 1225 51 820 150 1666 251
2150 138 658 356 1192 594 1458 185 206 449 297 665 230z"/>
<path d="M50820 22889 c-707 -87 -1288 -158 -1292 -159 -4 0 41 -98 99 -217
936 -1932 1973 -4232 3103 -6883 144 -338 287 -671 316 -740 30 -69 172 -404
315 -745 144 -341 269 -639 280 -663 l18 -42 98 5 c365 23 741 84 983 161 99
31 257 106 302 144 l31 26 -138 480 c-75 263 -216 745 -311 1071 -96 326 -174
596 -174 601 0 5 186 12 428 16 235 3 515 8 622 11 107 3 357 7 555 10 564 8
1251 19 1850 30 154 3 557 10 895 15 771 12 888 16 1079 41 1430 182 2591
1263 2870 2675 46 231 55 338 55 634 0 201 -5 327 -16 427 -10 79 -24 247 -33
375 -9 128 -19 259 -23 292 l-7 58 -140 -118 c-1982 -1669 -4464 -2932 -7407
-3773 l-346 -98 -188 -138 c-251 -183 -267 -195 -270 -192 -1 1 -66 214 -144
472 -705 2342 -1256 4064 -2023 6323 l-21 62 -41 -1 c-22 -1 -618 -73 -1325
-160z"/>
<path d="M47220 22450 c-613 -76 -1117 -139 -1119 -139 -2 -1 -1 -22 2 -48 3
-27 40 -316 81 -643 355 -2816 550 -5523 605 -8418 4 -232 10 -424 12 -426 6
-6 227 -61 324 -81 119 -24 335 -45 468 -45 214 0 441 37 597 97 l75 28 7 145
c4 80 12 240 18 355 9 185 21 481 60 1550 62 1688 94 4002 79 5655 -4 487 -10
966 -13 1065 -4 99 -11 342 -16 540 -6 198 -13 393 -16 433 -5 66 -8 72 -27
71 -12 -1 -524 -63 -1137 -139z"/>
<path d="M55024 12958 c0 -143 -53 -216 -214 -292 -144 -68 -254 -97 -388
-103 -91 -5 -121 -2 -158 12 -86 33 -115 68 -164 205 l-28 74 -25 -50 c-96
-190 -76 -398 99 -991 137 -469 343 -904 546 -1160 84 -107 222 -186 383 -220
96 -20 380 -20 505 1 355 58 539 179 581 381 14 71 6 116 -73 395 -269 954
-638 1618 -999 1800 -32 17 -60 30 -62 30 -2 0 -3 -37 -3 -82z"/>
<path d="M46885 11956 c-720 -240 -1274 -489 -1680 -753 -227 -149 -433 -334
-531 -478 -65 -95 -76 -141 -46 -194 33 -61 61 -68 312 -80 698 -34 1979 -45
2570 -23 816 32 851 35 902 89 47 49 58 91 58 220 0 402 -120 828 -337 1201
l-68 117 -6 -60 c-3 -33 -15 -79 -27 -101 -27 -52 -90 -107 -141 -122 -63 -20
-209 -25 -304 -13 -222 30 -324 98 -364 243 -9 32 -19 58 -22 58 -3 -1 -145
-47 -316 -104z"/>
</g>
</svg>
