<?xml version="1.0" encoding="UTF-8"?>
<!DOCTYPE svg PUBLIC "-//W3C//DTD SVG 1.1//EN" "http://www.w3.org/Graphics/SVG/1.1/DTD/svg11.dtd">
<svg xmlns="http://www.w3.org/2000/svg" version="1.1" width="128px" height="128px" style="shape-rendering:geometricPrecision; text-rendering:geometricPrecision; image-rendering:optimizeQuality; fill-rule:evenodd; clip-rule:evenodd" xmlns:xlink="http://www.w3.org/1999/xlink">
<g><path style="opacity:0.935" fill="#000000" d="M 52.5,-0.5 C 55.8333,-0.5 59.1667,-0.5 62.5,-0.5C 63.4293,0.314913 64.4293,1.14825 65.5,2C 73.1952,2.70072 78.1952,6.70072 80.5,14C 81.8989,14.5946 83.2322,14.4279 84.5,13.5C 85.4999,51.4942 85.8332,89.4942 85.5,127.5C 83.1667,127.5 80.8333,127.5 78.5,127.5C 54.7005,122.754 30.7005,118.421 6.5,114.5C 9.58951,88.1176 13.0895,61.7842 17,35.5C 22.4504,33.353 27.7837,31.0196 33,28.5C 35.4849,15.897 41.9849,6.23031 52.5,-0.5 Z M 54.5,4.5 C 56.1992,4.33982 57.8659,4.50649 59.5,5C 53.243,10.0059 49.4096,16.5059 48,24.5C 44.9393,26.3704 41.7726,27.037 38.5,26.5C 41.4355,17.2455 46.7688,9.91221 54.5,4.5 Z M 69.5,8.5 C 72.1963,10.1992 74.1963,12.5326 75.5,15.5C 74.1502,16.9501 72.4835,17.6168 70.5,17.5C 70.4921,14.4552 70.1587,11.4552 69.5,8.5 Z M 54.5,22.5 C 55.176,18.8133 56.676,15.4799 59,12.5C 60.2635,10.393 62.0968,9.39297 64.5,9.5C 65.2209,12.8175 65.3876,16.1508 65,19.5C 61.5965,20.8007 58.0965,21.8007 54.5,22.5 Z M 56.5,39.5 C 59.8738,39.6744 63.2072,40.1744 66.5,41C 65.1062,45.0717 63.9395,49.2384 63,53.5C 58.6155,53.5944 54.1155,53.761 49.5,54C 45.7084,56.0527 44.5418,59.2194 46,63.5C 51.365,67.0194 56.365,71.0194 61,75.5C 64.552,83.3271 64.2187,90.9938 60,98.5C 53.9407,104.164 46.7741,105.998 38.5,104C 34.3096,103.076 30.9763,100.91 28.5,97.5C 29.4877,94.5499 30.321,91.5499 31,88.5C 35.5983,92.1234 40.765,93.29 46.5,92C 48.9078,88.9574 49.0745,85.7907 47,82.5C 44.2567,80.2121 41.4233,78.0455 38.5,76C 30.3005,64.9371 31.3005,54.6038 41.5,45C 46.2992,42.2375 51.2992,40.4042 56.5,39.5 Z"/></g>
<g><path style="opacity:0.963" fill="#000000" d="M 90.5,127.5 C 89.5,127.5 88.5,127.5 87.5,127.5C 87.1668,90.1607 87.5001,52.8274 88.5,15.5C 90.9837,17.483 93.3171,19.6496 95.5,22C 99.1516,22.4986 102.818,22.6653 106.5,22.5C 110.979,54.1872 115.646,85.8539 120.5,117.5C 120.392,118.442 120.059,119.275 119.5,120C 109.593,122.059 99.9262,124.559 90.5,127.5 Z"/></g>
</svg>
